<svg width="1400" height="400" viewBox="0 0 1400 400" xmlns="http://www.w3.org/2000/svg">
  <defs>
    <linearGradient id="g-tl" x1="100%" y1="0%" x2="0%" y2="100%">
      <stop offset="0%" stop-color="#FF9A6C"/>
      <stop offset="100%" stop-color="#D94B12"/>
    </linearGradient>
    <linearGradient id="g-tr" x1="0%" y1="0%" x2="100%" y2="100%">
      <stop offset="0%" stop-color="#00EDB4"/>
      <stop offset="100%" stop-color="#00A87A"/>
    </linearGradient>
    <linearGradient id="g-bl" x1="0%" y1="0%" x2="100%" y2="100%">
      <stop offset="0%" stop-color="#1A4A70"/>
      <stop offset="100%" stop-color="#0D2D47"/>
    </linearGradient>
    <linearGradient id="g-br" x1="100%" y1="0%" x2="0%" y2="100%">
      <stop offset="0%" stop-color="#0BBCD4"/>
      <stop offset="100%" stop-color="#076A80"/>
    </linearGradient>
    <filter id="f-shadow">
      <feDropShadow dx="0" dy="10" stdDeviation="20" flood-color="#000000" flood-opacity="0.12"/>
    </filter>
  </defs>
  <rect width="1400" height="400" fill="#FAF7F2"/>
  <ellipse cx="200" cy="200" rx="185" ry="185" fill="#FF6B35" fill-opacity="0.04"/>
  <g filter="url(#f-shadow)">
    <polygon points="200,20  20,200  200,200"  fill="url(#g-tl)"/>
    <polygon points="200,20  200,200  380,200" fill="url(#g-tr)"/>
    <polygon points="20,200  200,380  200,200" fill="url(#g-bl)"/>
    <polygon points="200,200 200,380  380,200" fill="url(#g-br)"/>
  </g>
  <line x1="200" y1="20"  x2="200" y2="380" stroke="#FAF7F2" stroke-width="2.5" stroke-opacity="0.55"/>
  <line x1="20"  y1="200" x2="380" y2="200" stroke="#FAF7F2" stroke-width="2.5" stroke-opacity="0.55"/>
  <line x1="200" y1="20"  x2="380" y2="200" stroke="#ffffff" stroke-width="1.8" stroke-opacity="0.35"/>
  <line x1="20"  y1="200" x2="200" y2="380" stroke="#000000" stroke-width="1.5" stroke-opacity="0.1"/>
  <polygon points="200,20  380,200  200,380  20,200" fill="none" stroke="#ffffff" stroke-width="1.5" stroke-opacity="0.2"/>
  <circle cx="200" cy="20"  r="8" fill="#ffffff" stroke="#e0d8cc" stroke-width="1"/>
  <circle cx="380" cy="200" r="6" fill="#00EDB4"/>
  <circle cx="200" cy="380" r="5" fill="#0BBCD4" fill-opacity="0.8"/>
  <circle cx="20"  cy="200" r="6" fill="#FF9A6C"/>
  <circle cx="200" cy="200" r="5" fill="#ffffff" fill-opacity="0.2"/>
  <text x="440" y="248" font-family="'Arial Black', Impact, sans-serif" font-weight="900" font-size="174" letter-spacing="-4" fill="#0D1E30">AIWIZN</text>
  <rect x="440" y="274" width="56" height="5" fill="#FF6B35" rx="2.5"/>
  <circle cx="424" cy="305" r="7" fill="#00C896"/>
  <text x="516" y="315" font-family="Arial, sans-serif" font-weight="400" font-size="23" letter-spacing="14" fill="#0D6B50">WISDOM ENGINE</text>
  <line x1="440" y1="332" x2="1360" y2="332" stroke="#E0D8CC" stroke-width="1.5"/>
  <text x="440" y="360" font-family="Arial, sans-serif" font-weight="300" font-size="18" letter-spacing="9" fill="#A89880">AGENTIC  ·  IMMERSIVE  ·  AUTONOMOUS</text>
</svg>
